{
    "asset" : {
        "generator" : "Khronos glTF Blender I/O v1.6.16",
        "version" : "2.0"
    },
    "scene" : 0,
    "scenes" : [
        {
            "name" : "Scene",
            "nodes" : [
                0,
                1,
                2,
                3,
                4,
                5,
                6,
                7,
                8,
                9,
                10,
                11,
                12
            ]
        }
    ],
    "nodes" : [
        {
            "mesh" : 0,
            "name" : "Damaged Helmet"
        },
        {
            "name" : "Light.001",
            "rotation" : [
                0.16907575726509094,
                0.7558803558349609,
                -0.27217137813568115,
                0.570947527885437
            ],
            "translation" : [
                4.076245307922363,
                5.903861999511719,
                -1.0054539442062378
            ]
        },
        {
            "name" : "Camera.001",
            "rotation" : [
                0.483536034822464,
                0.33687159419059753,
                -0.20870360732078552,
                0.7804827094078064
            ],
            "translation" : [
                7.358891487121582,
                4.958309173583984,
                6.925790786743164
            ]
        },
        {
            "name" : "Light.002",
            "rotation" : [
                0.16907575726509094,
                0.7558803558349609,
                -0.27217137813568115,
                0.570947527885437
            ],
            "translation" : [
                4.076245307922363,
                5.903861999511719,
                -1.0054539442062378
            ]
        },
        {
            "name" : "Camera.002",
            "rotation" : [
                0.483536034822464,
                0.33687159419059753,
                -0.20870360732078552,
                0.7804827094078064
            ],
            "translation" : [
                7.358891487121582,
                4.958309173583984,
                6.925790786743164
            ]
        },
        {
            "mesh" : 1,
            "name" : "Sphere Side 1"
        },
        {
            "mesh" : 2,
            "name" : "Sphere Side 2"
        },
        {
            "mesh" : 3,
            "name" : "Sphere Back 1"
        },
        {
            "mesh" : 4,
            "name" : "Suzanne 1"
        },
        {
            "mesh" : 5,
            "name" : "Suzanne 2"
        },
        {
            "mesh" : 6,
            "name" : "Platform"
        },
        {
            "name" : "Light",
            "rotation" : [
                0.16907575726509094,
                0.7558803558349609,
                -0.27217137813568115,
                0.570947527885437
            ],
            "translation" : [
                4.076245307922363,
                5.903861999511719,
                -1.0054539442062378
            ]
        },
        {
            "name" : "Camera",
            "rotation" : [
                0.483536034822464,
                0.33687159419059753,
                -0.20870360732078552,
                0.7804827094078064
            ],
            "translation" : [
                7.358891487121582,
                4.958309173583984,
                6.925790786743164
            ]
        }
    ],
    "materials" : [
        {
            "emissiveFactor" : [
                1,
                1,
                1
            ],
            "emissiveTexture" : {
                "index" : 0
            },
            "name" : "Material.Helmet",
            "normalTexture" : {
                "index" : 1
            },
            "occlusionTexture" : {
                "index" : 2
            },
            "pbrMetallicRoughness" : {
                "baseColorTexture" : {
                    "index" : 3
                },
                "metallicRoughnessTexture" : {
                    "index" : 2
                }
            }
        },
        {
            "doubleSided" : true,
            "emissiveFactor" : [
                1,
                1,
                1
            ],
            "emissiveTexture" : {
                "index" : 4
            },
            "name" : "Material.SphereSide",
            "normalTexture" : {
                "index" : 5
            },
            "pbrMetallicRoughness" : {
                "baseColorTexture" : {
                    "index" : 6
                },
                "metallicRoughnessTexture" : {
                    "index" : 7
                }
            }
        },
        {
            "doubleSided" : true,
            "emissiveFactor" : [
                1,
                1,
                1
            ],
            "emissiveTexture" : {
                "index" : 8
            },
            "name" : "Material.SphereBack",
            "normalTexture" : {
                "index" : 9
            },
            "pbrMetallicRoughness" : {
                "baseColorTexture" : {
                    "index" : 10
                },
                "metallicRoughnessTexture" : {
                    "index" : 11
                }
            }
        },
        {
            "doubleSided" : true,
            "emissiveFactor" : [
                1,
                1,
                1
            ],
            "emissiveTexture" : {
                "index" : 12
            },
            "name" : "Material.Suzanne",
            "normalTexture" : {
                "index" : 13
            },
            "pbrMetallicRoughness" : {
                "baseColorTexture" : {
                    "index" : 14
                },
                "metallicRoughnessTexture" : {
                    "index" : 15
                }
            }
        },
        {
            "doubleSided" : true,
            "emissiveFactor" : [
                1,
                1,
                1
            ],
            "emissiveTexture" : {
                "index" : 16
            },
            "name" : "Material.Cube",
            "normalTexture" : {
                "index" : 17
            },
            "pbrMetallicRoughness" : {
                "baseColorTexture" : {
                    "index" : 18
                },
                "metallicRoughnessTexture" : {
                    "index" : 19
                }
            }
        }
    ],
    "meshes" : [
        {
            "name" : "mesh_helmet_LP_13930damagedHelmet",
            "primitives" : [
                {
                    "attributes" : {
                        "POSITION" : 0,
                        "NORMAL" : 1,
                        "TEXCOORD_0" : 2
                    },
                    "indices" : 3,
                    "material" : 0
                }
            ]
        },
        {
            "name" : "Icosphere",
            "primitives" : [
                {
                    "attributes" : {
                        "POSITION" : 4,
                        "NORMAL" : 5,
                        "TEXCOORD_0" : 6
                    },
                    "indices" : 7,
                    "material" : 1
                }
            ]
        },
        {
            "name" : "Icosphere.001",
            "primitives" : [
                {
                    "attributes" : {
                        "POSITION" : 8,
                        "NORMAL" : 9,
                        "TEXCOORD_0" : 10
                    },
                    "indices" : 7,
                    "material" : 1
                }
            ]
        },
        {
            "name" : "Icosphere.002",
            "primitives" : [
                {
                    "attributes" : {
                        "POSITION" : 11,
                        "NORMAL" : 12,
                        "TEXCOORD_0" : 13
                    },
                    "indices" : 7,
                    "material" : 2
                }
            ]
        },
        {
            "name" : "Suzanne",
            "primitives" : [
                {
                    "attributes" : {
                        "POSITION" : 14,
                        "NORMAL" : 15,
                        "TEXCOORD_0" : 16
                    },
                    "indices" : 17,
                    "material" : 3
                }
            ]
        },
        {
            "name" : "Suzanne.001",
            "primitives" : [
                {
                    "attributes" : {
                        "POSITION" : 18,
                        "NORMAL" : 19,
                        "TEXCOORD_0" : 20
                    },
                    "indices" : 17,
                    "material" : 3
                }
            ]
        },
        {
            "name" : "Cube.001",
            "primitives" : [
                {
                    "attributes" : {
                        "POSITION" : 21,
                        "NORMAL" : 22,
                        "TEXCOORD_0" : 23
                    },
                    "indices" : 24,
                    "material" : 4
                }
            ]
        }
    ],
    "textures" : [
        {
            "sampler" : 0,
            "source" : 0
        },
        {
            "sampler" : 0,
            "source" : 1
        },
        {
            "sampler" : 0,
            "source" : 2
        },
        {
            "sampler" : 0,
            "source" : 3
        },
        {
            "sampler" : 0,
            "source" : 4
        },
        {
            "sampler" : 0,
            "source" : 5
        },
        {
            "sampler" : 0,
            "source" : 6
        },
        {
            "sampler" : 0,
            "source" : 7
        },
        {
            "sampler" : 0,
            "source" : 4
        },
        {
            "sampler" : 0,
            "source" : 5
        },
        {
            "sampler" : 0,
            "source" : 6
        },
        {
            "sampler" : 0,
            "source" : 7
        },
        {
            "sampler" : 0,
            "source" : 4
        },
        {
            "sampler" : 0,
            "source" : 5
        },
        {
            "sampler" : 0,
            "source" : 6
        },
        {
            "sampler" : 0,
            "source" : 7
        },
        {
            "sampler" : 0,
            "source" : 4
        },
        {
            "sampler" : 0,
            "source" : 5
        },
        {
            "sampler" : 0,
            "source" : 6
        },
        {
            "sampler" : 0,
            "source" : 7
        }
    ],
    "images" : [
        {
            "mimeType" : "image/jpeg",
            "name" : "Default_emissive",
            "uri" : "Default_emissive.jpg"
        },
        {
            "mimeType" : "image/jpeg",
            "name" : "Default_normal",
            "uri" : "Default_normal.jpg"
        },
        {
            "mimeType" : "image/png",
            "name" : "Default_AO-Default_metalRoughness",
            "uri" : "Default_AO-Default_metalRoughness.png"
        },
        {
            "mimeType" : "image/jpeg",
            "name" : "Default_albedo",
            "uri" : "Default_albedo.jpg"
        },
        {
            "mimeType" : "image/png",
            "name" : "emission",
            "uri" : "emission.png"
        },
        {
            "mimeType" : "image/png",
            "name" : "normal_map",
            "uri" : "normal_map.png"
        },
        {
            "mimeType" : "image/png",
            "name" : "albedo",
            "uri" : "albedo.png"
        },
        {
            "mimeType" : "image/png",
            "name" : "metallic_roughness",
            "uri" : "metallic_roughness.png"
        }
    ],
    "accessors" : [
        {
            "bufferView" : 0,
            "componentType" : 5126,
            "count" : 14954,
            "max" : [
                0.9424954056739807,
                2.7209720611572266,
                0.7169239521026611
            ],
            "min" : [
                -0.9474585652351379,
                0.9666920900344849,
                -1.3416870832443237
            ],
            "type" : "VEC3"
        },
        {
            "bufferView" : 1,
            "componentType" : 5126,
            "count" : 14954,
            "type" : "VEC3"
        },
        {
            "bufferView" : 2,
            "componentType" : 5126,
            "count" : 14954,
            "type" : "VEC2"
        },
        {
            "bufferView" : 3,
            "componentType" : 5123,
            "count" : 46356,
            "type" : "SCALAR"
        },
        {
            "bufferView" : 4,
            "componentType" : 5126,
            "count" : 729,
            "max" : [
                -2.25,
                2.75,
                0.4999999701976776
            ],
            "min" : [
                -3.25,
                1.75,
                -0.4999999701976776
            ],
            "type" : "VEC3"
        },
        {
            "bufferView" : 5,
            "componentType" : 5126,
            "count" : 729,
            "type" : "VEC3"
        },
        {
            "bufferView" : 6,
            "componentType" : 5126,
            "count" : 729,
            "type" : "VEC2"
        },
        {
            "bufferView" : 7,
            "componentType" : 5123,
            "count" : 3840,
            "type" : "SCALAR"
        },
        {
            "bufferView" : 8,
            "componentType" : 5126,
            "count" : 729,
            "max" : [
                3.25,
                2.75,
                0.4999999701976776
            ],
            "min" : [
                2.25,
                1.75,
                -0.4999999701976776
            ],
            "type" : "VEC3"
        },
        {
            "bufferView" : 9,
            "componentType" : 5126,
            "count" : 729,
            "type" : "VEC3"
        },
        {
            "bufferView" : 10,
            "componentType" : 5126,
            "count" : 729,
            "type" : "VEC2"
        },
        {
            "bufferView" : 11,
            "componentType" : 5126,
            "count" : 729,
            "max" : [
                0.5,
                4.75,
                -4.5
            ],
            "min" : [
                -0.4999999701976776,
                3.75,
                -5.5
            ],
            "type" : "VEC3"
        },
        {
            "bufferView" : 12,
            "componentType" : 5126,
            "count" : 729,
            "type" : "VEC3"
        },
        {
            "bufferView" : 13,
            "componentType" : 5126,
            "count" : 729,
            "type" : "VEC2"
        },
        {
            "bufferView" : 14,
            "componentType" : 5126,
            "count" : 556,
            "max" : [
                -2.06640625,
                3.7421875,
                -2.57421875
            ],
            "min" : [
                -3.43359375,
                2.7578125,
                -3.42578125
            ],
            "type" : "VEC3"
        },
        {
            "bufferView" : 15,
            "componentType" : 5126,
            "count" : 556,
            "type" : "VEC3"
        },
        {
            "bufferView" : 16,
            "componentType" : 5126,
            "count" : 556,
            "type" : "VEC2"
        },
        {
            "bufferView" : 17,
            "componentType" : 5123,
            "count" : 2904,
            "type" : "SCALAR"
        },
        {
            "bufferView" : 18,
            "componentType" : 5126,
            "count" : 556,
            "max" : [
                3.43359375,
                3.7421875,
                -2.57421875
            ],
            "min" : [
                2.06640625,
                2.7578125,
                -3.42578125
            ],
            "type" : "VEC3"
        },
        {
            "bufferView" : 19,
            "componentType" : 5126,
            "count" : 556,
            "type" : "VEC3"
        },
        {
            "bufferView" : 20,
            "componentType" : 5126,
            "count" : 556,
            "type" : "VEC2"
        },
        {
            "bufferView" : 21,
            "componentType" : 5126,
            "count" : 24,
            "max" : [
                5.284055233001709,
                0.9884631037712097,
                3.020944118499756
            ],
            "min" : [
                -5.284055233001709,
                0.011536896228790283,
                -7.020944118499756
            ],
            "type" : "VEC3"
        },
        {
            "bufferView" : 22,
            "componentType" : 5126,
            "count" : 24,
            "type" : "VEC3"
        },
        {
            "bufferView" : 23,
            "componentType" : 5126,
            "count" : 24,
            "type" : "VEC2"
        },
        {
            "bufferView" : 24,
            "componentType" : 5123,
            "count" : 36,
            "type" : "SCALAR"
        }
    ],
    "bufferViews" : [
        {
            "buffer" : 0,
            "byteLength" : 179448,
            "byteOffset" : 0
        },
        {
            "buffer" : 0,
            "byteLength" : 179448,
            "byteOffset" : 179448
        },
        {
            "buffer" : 0,
            "byteLength" : 119632,
            "byteOffset" : 358896
        },
        {
            "buffer" : 0,
            "byteLength" : 92712,
            "byteOffset" : 478528
        },
        {
            "buffer" : 0,
            "byteLength" : 8748,
            "byteOffset" : 571240
        },
        {
            "buffer" : 0,
            "byteLength" : 8748,
            "byteOffset" : 579988
        },
        {
            "buffer" : 0,
            "byteLength" : 5832,
            "byteOffset" : 588736
        },
        {
            "buffer" : 0,
            "byteLength" : 7680,
            "byteOffset" : 594568
        },
        {
            "buffer" : 0,
            "byteLength" : 8748,
            "byteOffset" : 602248
        },
        {
            "buffer" : 0,
            "byteLength" : 8748,
            "byteOffset" : 610996
        },
        {
            "buffer" : 0,
            "byteLength" : 5832,
            "byteOffset" : 619744
        },
        {
            "buffer" : 0,
            "byteLength" : 8748,
            "byteOffset" : 625576
        },
        {
            "buffer" : 0,
            "byteLength" : 8748,
            "byteOffset" : 634324
        },
        {
            "buffer" : 0,
            "byteLength" : 5832,
            "byteOffset" : 643072
        },
        {
            "buffer" : 0,
            "byteLength" : 6672,
            "byteOffset" : 648904
        },
        {
            "buffer" : 0,
            "byteLength" : 6672,
            "byteOffset" : 655576
        },
        {
            "buffer" : 0,
            "byteLength" : 4448,
            "byteOffset" : 662248
        },
        {
            "buffer" : 0,
            "byteLength" : 5808,
            "byteOffset" : 666696
        },
        {
            "buffer" : 0,
            "byteLength" : 6672,
            "byteOffset" : 672504
        },
        {
            "buffer" : 0,
            "byteLength" : 6672,
            "byteOffset" : 679176
        },
        {
            "buffer" : 0,
            "byteLength" : 4448,
            "byteOffset" : 685848
        },
        {
            "buffer" : 0,
            "byteLength" : 288,
            "byteOffset" : 690296
        },
        {
            "buffer" : 0,
            "byteLength" : 288,
            "byteOffset" : 690584
        },
        {
            "buffer" : 0,
            "byteLength" : 192,
            "byteOffset" : 690872
        },
        {
            "buffer" : 0,
            "byteLength" : 72,
            "byteOffset" : 691064
        }
    ],
    "samplers" : [
        {
            "magFilter" : 9729,
            "minFilter" : 9987
        }
    ],
    "buffers" : [
        {
            "byteLength" : 691136,
            "uri" : "demo_scene.bin"
        }
    ]
}
